<svg width="22" height="22" viewBox="0 0 22 22" fill="none" xmlns="http://www.w3.org/2000/svg">
<path d="M10.9999 14.6666C14.5437 14.6666 17.4166 11.7937 17.4166 8.24992C17.4166 4.70609 14.5437 1.83325 10.9999 1.83325C7.45609 1.83325 4.58325 4.70609 4.58325 8.24992C4.58325 11.7937 7.45609 14.6666 10.9999 14.6666Z" fill="#6B6E73"/>
<path d="M8.13703 11.9259L6.87642 18.0453C6.70071 18.8983 7.62358 19.5526 8.37035 19.1046L11.0001 17.5267L13.6304 19.1049C14.3771 19.5529 15.2999 18.8988 15.1244 18.0459L13.8631 11.9167" fill="#6B6E73" fill-opacity="0.6"/>
<path d="M10.9999 11.9166C13.025 11.9166 14.6666 10.275 14.6666 8.24992C14.6666 6.22487 13.025 4.58325 10.9999 4.58325C8.97487 4.58325 7.33325 6.22487 7.33325 8.24992C7.33325 10.275 8.97487 11.9166 10.9999 11.9166Z" stroke="white" stroke-linecap="round" stroke-linejoin="round"/>
</svg>
