<svg width="28" height="28" viewBox="0 0 28 28" fill="none" xmlns="http://www.w3.org/2000/svg">
<path d="M21 9.33325C21 7.47674 20.2625 5.69626 18.9497 4.3835C17.637 3.07075 15.8565 2.33325 14 2.33325C12.1435 2.33325 10.363 3.07075 9.05025 4.3835C7.7375 5.69626 7 7.47674 7 9.33325C7 17.4999 3.5 19.8332 3.5 19.8332H24.5C24.5 19.8332 21 17.4999 21 9.33325Z" stroke-width="2.4" stroke-linecap="round" stroke-linejoin="round"/>
<path d="M16.0184 24.5C15.8132 24.8536 15.5188 25.1471 15.1646 25.3511C14.8104 25.5551 14.4088 25.6625 14 25.6625C13.5912 25.6625 13.1896 25.5551 12.8354 25.3511C12.4812 25.1471 12.1868 24.8536 11.9817 24.5" stroke-width="2.4" stroke-linecap="round" stroke-linejoin="round"/>
</svg>
