<svg width="22" height="23" viewBox="0 0 22 23" fill="none" xmlns="http://www.w3.org/2000/svg">
<path d="M3.47977 9.92023L3.47977 9.92022C2.4266 8.33758 1.79851 6.27035 1.68771 4.03605H3.63069C3.86087 6.82453 4.52075 9.40446 5.54879 11.4604C5.66646 11.6957 5.788 11.9219 5.91303 12.139C5.01608 11.7265 4.18181 10.9755 3.47977 9.92023ZM18.2388 9.92022L18.322 9.97562L18.2388 9.92023C17.5367 10.9755 16.7025 11.7265 15.8055 12.139C15.9306 11.9219 16.0521 11.6957 16.1698 11.4604C17.1978 9.40446 17.8575 6.82453 18.0879 4.03605H20.0308C19.92 6.27035 19.2919 8.33758 18.2388 9.92022ZM6.83055 10.8194L6.74111 10.8642L6.83055 10.8194C5.71765 8.59379 5.06734 5.66885 4.98167 2.51717H16.7369C16.651 5.66886 16.0007 8.59395 14.888 10.8194C14.5145 11.5665 14.1066 12.1995 13.6749 12.713C13.6439 12.7431 13.6155 12.7761 13.5904 12.8116C13.1566 13.3084 12.7006 13.6836 12.2329 13.9318C12.2028 13.9444 12.1744 13.9592 12.1478 13.9749C11.7254 14.1844 11.2939 14.2918 10.8593 14.2918C10.4249 14.2918 9.99355 14.1845 9.57141 13.9753C9.54415 13.9591 9.51562 13.9444 9.48556 13.9316C9.01775 13.6835 8.56182 13.3081 8.1279 12.8113C8.10283 12.7761 8.07483 12.7433 8.0439 12.7131C7.61197 12.1996 7.2041 11.5665 6.83055 10.8194ZM20.7651 2.60297H18.1677C18.1755 2.33689 18.1798 2.06937 18.1798 1.80063C18.1798 1.40484 17.8588 1.08408 17.4632 1.08408H4.25534C3.85975 1.08408 3.5388 1.40484 3.5388 1.80063C3.5388 2.06937 3.5431 2.33689 3.5509 2.60297H0.953459C0.557686 2.60297 0.236914 2.92374 0.236914 3.31951C0.236914 6.09842 0.963042 8.72481 2.28665 10.714C3.5859 12.6669 5.3223 13.8049 7.21043 13.9296C7.61612 14.3665 8.04468 14.7277 8.49171 15.009V17.5937H7.55739C6.25173 17.5937 5.18982 18.6557 5.18982 19.9612V20.8977C4.82029 20.9264 4.52945 21.2354 4.52945 21.6121C4.52945 22.0079 4.85022 22.3286 5.24599 22.3286H16.4726C16.8683 22.3286 17.1891 22.0079 17.1891 21.6121C17.1891 21.2354 16.8983 20.9264 16.5287 20.8977V19.9612C16.5287 18.6557 15.4668 17.5937 14.1612 17.5937H13.2268V15.009C13.6739 14.7279 14.1026 14.3665 14.5083 13.9296C16.3963 13.8049 18.1327 12.6669 19.4321 10.714C20.7557 8.72481 21.4816 6.09841 21.4816 3.31951C21.4816 2.92374 21.1609 2.60297 20.7651 2.60297ZM15.0956 19.9612V20.8957H6.62291V19.9612C6.62291 19.4462 7.04216 19.0268 7.55739 19.0268H14.1612C14.6764 19.0268 15.0956 19.4462 15.0956 19.9612ZM9.9248 17.5937V15.617C10.2315 15.688 10.5434 15.7249 10.8593 15.7249C11.1752 15.7249 11.4871 15.688 11.7938 15.617V17.5937H9.9248Z" stroke-width="0.2"/>
</svg>
