<svg width="252" height="250" viewBox="0 0 252 250" fill="none" xmlns="http://www.w3.org/2000/svg">
<path opacity="0.2" d="M126 249C195.588 249 252 193.259 252 124.5C252 55.7405 195.588 0 126 0C56.4121 0 0 55.7405 0 124.5C0 193.259 56.4121 249 126 249Z" />
<path d="M126.639 115.655H79.3604V146.584H126.639V115.655Z" />
<path d="M100.637 29.4156H32.0835V58.7063H100.637V29.4156Z" />
<path d="M147.914 29.4156H100.635V58.7063H147.914V29.4156Z" fill="white"/>
<path d="M173.916 29.4156H147.915V58.7063H173.916V29.4156Z" />
<path d="M80.8396 58.7092H32.0835V87.9998H80.8396V58.7092Z" />
<path d="M126.639 58.7092H79.3604V87.9998H126.639V58.7092Z" />
<path d="M173.918 58.7092H126.639V87.9999H173.918V58.7092Z" fill="white"/>
<path d="M100.637 87.9999H32.0835V117.291H100.637V87.9999Z" fill="white"/>
<path d="M147.914 87.9999H100.635V117.291H147.914V87.9999Z" />
<path d="M173.915 87.9999H147.914V117.291H173.915V87.9999Z" />
<path d="M58.0846 29.4156H32.0835V58.7063H58.0846V29.4156Z" fill="white"/>
<path d="M58.0846 87.9999H32.0835V117.291H58.0846V87.9999Z" />
<path d="M79.3625 117.291H32.0835V146.581H79.3625V117.291Z" fill="white"/>
<path d="M173.918 117.291H126.639V146.581H173.918V117.291Z" fill="white"/>
<path d="M173.916 26.3334H32.0834C30.3808 26.3334 29 27.7137 29 29.4166V146.583C29 148.286 30.3808 149.666 32.0834 149.666H173.917C175.619 149.666 177 148.286 177 146.583V29.4166C177 27.7137 175.619 26.3334 173.916 26.3334ZM82.4444 84.9165V80.497C82.4444 78.7941 81.0635 77.4136 79.361 77.4136C77.6584 77.4136 76.2775 78.7938 76.2775 80.497V84.9165H35.1666V61.7915H123.555V84.9165H82.4444ZM97.5525 114.208H61.1694V91.0833H97.5528V114.208H97.5525ZM35.1666 91.0833H55.0026V114.208H35.1666V91.0833ZM129.722 61.7915H170.833V84.9165H129.722V61.7915ZM150.997 91.0833H170.833V114.208H150.997V91.0833ZM170.833 55.6249H150.997V32.5H170.833V55.6249ZM144.83 55.6249H103.719V32.5H144.83V55.6249ZM97.5525 55.6249H61.1694V32.5H97.5528V55.6249H97.5525ZM35.1666 32.5H55.0026V55.6249H35.1666V32.5ZM35.1666 120.375H76.2775V143.5H35.1666V120.375ZM82.4444 120.375H100.636C102.338 120.375 103.719 118.995 103.719 117.291V91.083H144.83V114.208H122.27C120.568 114.208 119.187 115.588 119.187 117.291C119.187 118.995 120.568 120.375 122.271 120.375H123.555V143.5H82.4444V120.375ZM170.833 143.5H129.722V120.375H170.833V143.5Z" fill="#252729"/>
<path d="M111.993 114.208H111.684C109.982 114.208 108.601 115.589 108.601 117.292C108.601 118.995 109.982 120.375 111.685 120.375H111.993C113.696 120.375 115.076 118.995 115.076 117.291C115.076 115.588 113.696 114.208 111.993 114.208Z" fill="#252729"/>
<path d="M79.361 66.7249C77.6584 66.7249 76.2776 68.1052 76.2776 69.8083V70.1168C76.2776 71.8196 77.6584 73.2002 79.361 73.2002C81.0636 73.2002 82.4444 71.8199 82.4444 70.1168V69.8083C82.4444 68.1052 81.0636 66.7249 79.361 66.7249Z" fill="#252729"/>
<path d="M160.824 200.395L152.674 175.312L130.008 167.704L108.679 183.2C108.923 196.666 113.239 209.137 120.446 219.432H146.816L160.824 200.395Z" fill="white"/>
<path d="M152.675 175.312L174.012 159.809V135.734L152.675 120.233L152.68 120.22C140.299 124.494 129.606 132.387 121.862 142.628L130.009 167.704L152.675 175.312Z" fill="white"/>
<path d="M174.011 135.734V159.81L195.348 175.312L218.014 167.705L226.161 142.628C218.417 132.387 207.724 124.495 195.343 120.22L195.348 120.234L174.011 135.734Z" fill="white"/>
<path d="M195.348 175.312L187.198 200.395L201.206 219.432H227.576C234.784 209.137 239.1 196.666 239.343 183.2L218.014 167.705L195.348 175.312Z" fill="white"/>
<path d="M201.206 219.432L187.198 200.395H160.824L146.816 219.432L154.966 244.517L154.96 244.522C160.989 246.357 167.382 247.344 174.011 247.344C180.64 247.344 187.034 246.357 193.062 244.522L193.057 244.517L201.206 219.432Z" fill="white"/>
<path d="M152.674 175.312L160.824 200.395H187.198L195.348 175.312L174.011 159.81L152.674 175.312Z" />
<path d="M174.011 135.734L195.348 120.233L195.342 120.22C194.431 119.906 193.508 119.611 192.577 119.335C186.69 117.592 180.461 116.659 174.011 116.659C167.56 116.659 161.332 117.592 155.444 119.335C154.514 119.611 153.591 119.906 152.679 120.22L152.674 120.233L174.011 135.734Z" />
<path d="M121.862 142.628C121.275 143.402 120.706 144.189 120.154 144.99C113.211 155.074 109.031 167.198 108.69 180.28C108.676 180.854 108.668 181.425 108.668 182.001C108.668 182.402 108.671 182.802 108.679 183.2L130.008 167.705L121.862 142.628Z" />
<path d="M146.816 219.432H120.446C121.004 220.23 121.58 221.015 122.173 221.786C129.789 231.697 140.187 239.362 152.2 243.613C153.112 243.935 154.032 244.238 154.96 244.522L154.965 244.516L146.816 219.432Z" />
<path d="M193.057 244.516L193.062 244.522C193.99 244.238 194.91 243.935 195.822 243.613C207.835 239.362 218.233 231.697 225.85 221.786C226.442 221.015 227.018 220.23 227.576 219.432H201.206L193.057 244.516Z" />
<path d="M239.332 180.281C238.99 167.199 234.81 155.074 227.867 144.99C227.315 144.19 226.747 143.402 226.16 142.628L218.013 167.705L239.342 183.2C239.351 182.802 239.353 182.402 239.353 182.001C239.353 181.425 239.345 180.854 239.332 180.281Z" />
<path d="M174.011 114.003C136.433 113.658 105.009 145.659 106.024 183.248C106.215 215.385 131.091 244.278 162.858 249.051C164.127 249.051 165.25 248.139 165.473 246.845C165.721 245.4 164.751 244.026 163.305 243.777C161.208 243.416 159.113 242.941 157.06 242.366L149.764 219.908L162.167 203.051H185.855L198.258 219.908L190.946 242.414C188.908 242.977 186.83 243.436 184.717 243.777C183.271 244.026 182.301 245.399 182.55 246.845C182.799 248.291 184.175 249.261 185.618 249.012C217.704 243.802 242.369 214.555 242.01 182.002C242.33 144.885 211.11 113.668 174.011 114.003ZM202.549 216.776L190.145 199.919L197.461 177.405L217.56 170.658L236.661 184.535C236.31 196.209 232.457 207.34 226.111 216.776H202.549ZM145.473 216.776H121.932C115.57 207.277 111.717 196.1 111.334 184.555L130.461 170.658L150.561 177.404L157.876 199.919L145.473 216.776ZM111.441 177.911C112.052 167.247 115.492 157.222 121.002 148.581L126.886 166.69L111.441 177.911ZM155.797 176.326L174.011 163.093L192.225 176.326L185.268 197.739H162.754L155.797 176.326ZM221.136 166.69L227.019 148.581C232.53 157.223 235.971 167.248 236.581 177.911L221.136 166.69ZM223.18 143.205L215.901 165.612L195.801 172.358L176.667 158.456V137.088L195.806 123.184C206.59 127.236 216.07 134.256 223.18 143.205ZM189.505 121.195L174.011 132.451L158.518 121.195C163.497 119.918 168.692 119.26 174.011 119.315C179.329 119.259 184.524 119.918 189.505 121.195ZM152.216 123.184L171.355 137.088V158.456L152.22 172.358L132.121 165.612L124.841 143.204C131.951 134.256 141.431 127.237 152.216 123.184ZM125.898 222.088H144.886L150.802 240.299C141.065 236.479 132.525 230.08 125.898 222.088ZM197.219 240.299L203.136 222.088H222.125C215.484 230.051 206.929 236.413 197.219 240.299Z" fill="#252729"/>
<path d="M174.01 250C175.477 250 176.666 248.811 176.666 247.344C176.666 245.877 175.477 244.688 174.01 244.688C172.543 244.688 171.354 245.877 171.354 247.344C171.354 248.811 172.543 250 174.01 250Z" fill="#252729"/>
</svg>
