<svg width="143" height="143" viewBox="0 0 143 143" fill="none" xmlns="http://www.w3.org/2000/svg">
<path d="M57.6562 90.8156L49.0892 64.449L25.2639 56.4524L2.84364 72.7407C3.09967 86.8961 7.636 100.004 15.2127 110.826H42.9315L57.6562 90.8156Z" fill="white"/>
<path d="M49.0893 64.4491L71.518 48.1535V22.8465L49.0893 6.55233L49.0949 6.53809C36.0801 11.0317 24.8402 19.3282 16.7004 30.0931L25.264 56.4525L49.0893 64.4491Z" fill="white"/>
<path d="M71.5179 22.8464V48.1538L93.9466 64.4493L117.772 56.4528L126.336 30.0933C118.196 19.3284 106.956 11.0319 93.941 6.53833L93.9466 6.55257L71.5179 22.8464Z" fill="white"/>
<path d="M93.9465 64.4489L85.3795 90.8156L100.104 110.827H127.823C135.4 100.005 139.936 86.8961 140.192 72.7409L117.772 56.4526L93.9465 64.4489Z" fill="white"/>
<path d="M100.104 110.826L85.3795 90.8154H57.6561L42.9314 110.826L51.4979 137.195L51.4923 137.2C57.829 139.129 64.5495 140.167 71.5178 140.167C78.486 140.167 85.2066 139.129 91.5433 137.2L91.5377 137.195L100.104 110.826Z" fill="white"/>
<path d="M49.0891 64.4491L57.6561 90.8157H85.3794L93.9465 64.4491L71.5178 48.1538L49.0891 64.4491Z" />
<path d="M71.5178 22.8464L93.9465 6.55222L93.9409 6.53798C92.9823 6.20795 92.0126 5.89803 91.0343 5.60793C84.8456 3.77631 78.2984 2.79517 71.5178 2.79517C64.7371 2.79517 58.1902 3.77631 52.0012 5.60793C51.0229 5.89803 50.0532 6.20795 49.0947 6.53798L49.0891 6.55222L71.5178 22.8464Z" />
<path d="M16.7001 30.0928C16.0831 30.9061 15.4856 31.7337 14.9054 32.5758C7.60738 43.1757 3.21317 55.9203 2.85467 69.6716C2.84043 70.2747 2.83177 70.8748 2.83177 71.4807C2.83177 71.9017 2.83456 72.3225 2.84322 72.7407L25.2635 56.4524L16.7001 30.0928Z" />
<path d="M42.9312 110.827H15.2124C15.7981 111.666 16.404 112.49 17.0269 113.301C25.0333 123.719 35.9633 131.777 48.5911 136.245C49.5496 136.583 50.5166 136.902 51.4921 137.2L51.4977 137.194L42.9312 110.827Z" />
<path d="M91.5378 137.194L91.5434 137.2C92.519 136.902 93.4859 136.583 94.4444 136.245C107.072 131.776 118.002 123.719 126.009 113.301C126.632 112.49 127.237 111.666 127.823 110.827H100.104L91.5378 137.194Z" />
<path d="M140.181 69.6719C139.822 55.9205 135.428 43.176 128.13 32.576C127.55 31.7342 126.953 30.9066 126.336 30.093L117.772 56.4524L140.192 72.7407C140.201 72.3227 140.204 71.9017 140.204 71.4806C140.204 70.8747 140.195 70.2747 140.181 69.6719Z" />
<path d="M71.5178 0.00290594C32.0168 -0.359788 -1.0146 33.2789 0.0522642 72.7911C0.253016 106.572 26.4016 136.944 59.794 141.961C61.1281 141.961 62.3083 141.002 62.5426 139.642C62.8039 138.123 61.7843 136.679 60.2645 136.417C58.0596 136.038 55.8572 135.539 53.6997 134.934L46.0301 111.327L59.0684 93.6076H83.9678L97.0061 111.327L89.32 134.984C87.1768 135.576 84.9925 136.058 82.7717 136.417C81.2519 136.679 80.232 138.123 80.4939 139.642C80.7558 141.162 82.2018 142.182 83.719 141.92C117.446 136.443 143.374 105.7 142.996 71.481C143.333 32.465 110.515 -0.349458 71.5178 0.00290594ZM101.516 108.034L88.4779 90.3152L96.1673 66.6487L117.295 59.5574L137.374 74.1444C137.004 86.4152 132.954 98.1157 126.283 108.034H101.516V108.034ZM41.5195 108.034H16.7742C10.0868 98.0498 6.03714 86.301 5.63368 74.1648L25.7399 59.5574L46.8677 66.6485L54.5572 90.3149L41.5195 108.034ZM5.7462 67.1806C6.38866 55.9715 10.005 45.4332 15.7972 36.3505L21.9814 55.3857L5.7462 67.1806ZM52.3715 65.5154L71.5178 51.6049L90.6641 65.5154L83.351 88.0234H59.6846L52.3715 65.5154ZM121.054 55.386L127.238 36.3508C133.031 45.4341 136.648 55.9723 137.29 67.1812L121.054 55.386ZM123.203 30.699L115.551 54.2526L94.4234 61.3437L74.3102 46.7307V24.2688L94.4281 9.65353C105.764 13.9137 115.729 21.2924 123.203 30.699ZM87.8044 7.56308L71.5178 19.3949L55.2318 7.56336C60.4664 6.22092 65.9269 5.52876 71.5178 5.58711C77.1084 5.5282 82.5692 6.22036 87.8044 7.56308ZM48.608 9.65381L68.7257 24.2688V46.7307L48.6125 61.3437L27.485 54.2526L19.8326 30.6985C27.3057 21.2921 37.271 13.914 48.608 9.65381ZM20.9433 113.619H40.9027L47.1218 132.761C36.886 128.746 27.9091 122.019 20.9433 113.619ZM95.9135 132.761L102.133 113.619H122.094C115.113 121.989 106.12 128.677 95.9135 132.761Z" />
<path d="M71.5176 142.958C73.0597 142.958 74.3097 141.708 74.3097 140.166C74.3097 138.624 73.0597 137.374 71.5176 137.374C69.9756 137.374 68.7255 138.624 68.7255 140.166C68.7255 141.708 69.9756 142.958 71.5176 142.958Z" />
</svg>
