<svg width="26" height="26" viewBox="0 0 26 26" fill="none" xmlns="http://www.w3.org/2000/svg">
<path d="M21.6667 5.16663H4.33341C3.1368 5.16663 2.16675 6.13668 2.16675 7.33329V18.1666C2.16675 19.3632 3.1368 20.3333 4.33341 20.3333H21.6667C22.8634 20.3333 23.8334 19.3632 23.8334 18.1666V7.33329C23.8334 6.13668 22.8634 5.16663 21.6667 5.16663Z" stroke-width="2" stroke-linecap="round" stroke-linejoin="round"/>
<path d="M23.0418 9.5L20.5834 9.5C20.0088 9.5 19.4577 9.72827 19.0513 10.1346C18.645 10.5409 18.4167 11.092 18.4167 11.6667L18.4167 13.8333C18.4167 14.408 18.645 14.9591 19.0514 15.3654C19.4577 15.7717 20.0088 16 20.5834 16L23.0418 16" stroke-width="2" stroke-linecap="round" stroke-linejoin="round"/>
<path d="M2.95824 16L5.41659 16C5.99122 16 6.54232 15.7717 6.94865 15.3654C7.35498 14.9591 7.58325 14.408 7.58325 13.8333L7.58325 11.6667C7.58325 11.092 7.35498 10.5409 6.94865 10.1346C6.54232 9.72827 5.99122 9.5 5.41659 9.5L2.95824 9.5" stroke-width="2" stroke-linecap="round" stroke-linejoin="round"/>
<path d="M13 5.16663V20.3333" stroke-width="2" stroke-linecap="round" stroke-linejoin="round"/>
</svg>
