<svg width="58" height="58" viewBox="0 0 58 58" fill="none" xmlns="http://www.w3.org/2000/svg">
<g clip-path="url(#clip0)">
<path d="M55.0192 33.3674C56.5005 30.8221 57.487 27.9555 57.8465 24.8996C57.8478 24.8899 57.8487 24.8802 57.85 24.8705C57.9478 24.0289 57.9998 23.1733 57.9998 22.3058C57.9998 16.5771 55.8039 11.3521 52.2104 7.42677C52.1531 7.34658 52.0857 7.27344 52.009 7.21044C49.6747 4.72767 46.7739 2.78331 43.5139 1.58841C43.4553 1.56198 43.3945 1.53995 43.3323 1.52409C41.0214 0.700169 38.5347 0.249878 35.944 0.249878C33.0545 0.249878 30.2933 0.809437 27.7621 1.82413C27.6933 1.84484 27.6272 1.87216 27.5634 1.90564C24.451 3.18866 21.6946 5.1643 19.4863 7.63914C19.4141 7.70303 19.3497 7.77484 19.2955 7.85415C15.9289 11.7279 13.8881 16.7829 13.8881 22.3058C13.8881 23.1336 13.9357 23.9509 14.0251 24.7555C14.026 24.7656 14.0273 24.7753 14.0286 24.785C14.1925 26.2451 14.4996 27.6621 14.9354 29.0222L3.08728 40.8703C2.64669 41.3109 2.64669 42.0251 3.08728 42.4657C3.30758 42.686 3.59617 42.7962 3.88477 42.7962C4.17336 42.7962 4.46195 42.686 4.68225 42.4657L15.8197 31.3288C16.1299 32.0174 16.4744 32.688 16.8511 33.337C16.8855 33.4145 16.9291 33.4872 16.9798 33.5547C19.7758 38.2501 24.2646 41.8242 29.5985 43.4298L21.6527 51.3751C21.2126 51.8157 21.2126 52.5299 21.6527 52.9705C21.873 53.1908 22.1621 53.3009 22.4507 53.3009C22.7393 53.3009 23.0278 53.1908 23.2481 52.9705L32.1795 44.0387C33.4035 44.2502 34.6609 44.3616 35.944 44.3616C43.9783 44.3616 51.0221 40.0425 54.8782 33.6049C54.9346 33.5317 54.9822 33.4524 55.0192 33.3674ZM45.26 33.4119L41.247 27.2365L43.3808 20.6694L48.4525 19.5304L49.7721 19.2343L55.5382 25.1555C55.1879 27.5753 54.3984 29.855 53.2528 31.9108L45.26 33.4119ZM30.6414 27.2365L26.6302 33.4088L18.6126 31.8702C17.464 29.7972 16.6771 27.4973 16.3361 25.0564L22.1096 19.2326L28.5076 20.6694L29.9294 25.0458L30.6414 27.2365ZM19.5264 11.249L20.5438 17.6081L16.1475 22.0427C16.1999 18.0513 17.4375 14.3406 19.5264 11.249ZM32.6998 26.272L30.7075 20.1402L35.9233 16.3511L41.1391 20.1407L39.1467 26.272L32.6998 26.272ZM55.7418 22.1313L51.3226 17.5931L52.1038 10.8767C54.364 14.0635 55.7052 17.9443 55.7418 22.1313ZM50.1109 8.48817L49.1125 17.0706L46.6857 17.6152L42.7569 18.4972L37.0926 14.382V8.2758L43.2143 3.88833C45.8319 4.9255 48.1763 6.50548 50.1109 8.48817ZM40.5235 3.0415L35.8964 6.35788L30.7379 3.20188C32.3976 2.74895 34.1428 2.50574 35.944 2.50574C37.52 2.50574 39.0533 2.69167 40.5235 3.0415ZM28.0004 4.1712L34.7953 8.32868V14.382L30.8 17.2847L29.1314 18.4972L22.741 17.0626L21.428 8.85563C23.2631 6.87647 25.4965 5.27225 28.0004 4.1712ZM20.3569 34.5019L26.4429 35.6704L29.5425 41.043C25.8807 39.7887 22.6996 37.4892 20.3569 34.5019ZM32.5959 41.8211L28.4846 34.6949L32.4923 28.5279L39.3956 28.5279L43.4033 34.6949L39.2929 41.8207C38.2038 42.0071 37.0851 42.1053 35.944 42.1053C34.8028 42.1058 33.6846 42.0075 32.5959 41.8211ZM42.3458 41.043L45.4437 35.6726L51.5063 34.5337C49.1663 37.5055 45.9949 39.7931 42.3458 41.043Z" />
<path d="M15.7841 40.8703L0.580448 56.0744C0.139851 56.515 0.139851 57.2292 0.580448 57.6698C0.800747 57.8897 1.08934 57.9998 1.37793 57.9998C1.66652 57.9998 1.95511 57.8897 2.17541 57.6694L17.3796 42.4657C17.8197 42.0251 17.8197 41.3109 17.3796 40.8703C16.939 40.4301 16.2247 40.4301 15.7841 40.8703Z" />
<path d="M18.9905 54.5045C18.694 54.5045 18.4032 54.6252 18.1934 54.835C17.9837 55.0447 17.8625 55.3355 17.8625 55.6333C17.8625 55.9298 17.9833 56.2198 18.1934 56.4299C18.4032 56.641 18.694 56.7612 18.9905 56.7612C19.2874 56.7612 19.5782 56.641 19.788 56.4299C19.9977 56.2202 20.1184 55.9298 20.1184 55.6333C20.1184 55.3355 19.9981 55.0447 19.788 54.835C19.5782 54.6252 19.2874 54.5045 18.9905 54.5045Z" />
</g>
<defs>
<clipPath id="clip0">
<rect width="57.75" height="57.75" fill="white" transform="translate(0.25 0.249878)"/>
</clipPath>
</defs>
</svg>
