<svg width="21" height="21" viewBox="0 0 21 21" fill="none" xmlns="http://www.w3.org/2000/svg">
<path fill-rule="evenodd" clip-rule="evenodd" d="M20.4 10.7344C20.4 10.0031 20.3344 9.3 20.2125 8.625H10.5V12.6141H16.05C15.8109 13.9031 15.0844 14.9953 13.9922 15.7266V18.3141H17.325C19.275 16.5188 20.4 13.875 20.4 10.7344Z" fill="#4285F4"/>
<path fill-rule="evenodd" clip-rule="evenodd" d="M10.4998 20.8125C13.2842 20.8125 15.6186 19.8891 17.3248 18.314L13.992 15.7265C13.0686 16.3453 11.8873 16.7109 10.4998 16.7109C7.81388 16.7109 5.54044 14.8969 4.7295 12.4594H1.28418V15.1312C2.98106 18.5015 6.46856 20.8125 10.4998 20.8125Z" fill="#34A853"/>
<path fill-rule="evenodd" clip-rule="evenodd" d="M4.72969 12.4594C4.52344 11.8407 4.40626 11.1797 4.40626 10.5C4.40626 9.82034 4.52344 9.1594 4.72969 8.54065V5.86877H1.28438C0.585938 7.26096 0.1875 8.83597 0.1875 10.5C0.1875 12.1641 0.585938 13.7391 1.28438 15.1313L4.72969 12.4594Z" fill="#FBBC05"/>
<path fill-rule="evenodd" clip-rule="evenodd" d="M10.4998 4.28907C12.0139 4.28907 13.3733 4.80938 14.442 5.83126L17.3998 2.87344C15.6139 1.20938 13.2795 0.1875 10.4998 0.1875C6.46856 0.1875 2.98106 2.49844 1.28418 5.86876L4.7295 8.54064C5.54044 6.10313 7.81388 4.28907 10.4998 4.28907Z" fill="#EA4335"/>
</svg>
