<svg width="253" height="249" viewBox="0 0 253 249" fill="none" xmlns="http://www.w3.org/2000/svg">
<path opacity="0.2" d="M127 249C196.588 249 253 193.259 253 124.5C253 55.7405 196.588 0 127 0C57.4121 0 1 55.7405 1 124.5C1 193.259 57.4121 249 127 249Z" />
<path d="M160.582 111.93L151.438 83.7878L126.009 75.2529L102.079 92.6378C102.353 107.746 107.194 121.737 115.281 133.288H144.866L160.582 111.93Z" fill="white"/>
<path d="M151.439 83.7877L175.378 66.395V39.3842L151.439 21.993L151.445 21.9778C137.554 26.774 125.557 35.629 116.87 47.1187L126.01 75.2527L151.439 83.7877Z" fill="white"/>
<path d="M175.377 39.3844V66.3956L199.316 83.7882L224.745 75.2533L233.885 47.1192C225.198 35.6295 213.201 26.7745 199.31 21.9784L199.316 21.9936L175.377 39.3844Z" fill="white"/>
<path d="M199.316 83.7878L190.172 111.93L205.888 133.288H235.473C243.56 121.737 248.402 107.746 248.675 92.638L224.745 75.2531L199.316 83.7878Z" fill="white"/>
<path d="M205.888 133.288L190.172 111.93H160.582L144.866 133.288L154.009 161.431L154.003 161.437C160.767 163.496 167.94 164.604 175.377 164.604C182.815 164.604 189.988 163.496 196.751 161.437L196.745 161.431L205.888 133.288Z" fill="white"/>
<path d="M151.438 83.7878L160.582 111.93H190.172L199.316 83.7878L175.377 66.3954L151.438 83.7878Z" />
<path d="M175.377 39.3842L199.316 21.9931L199.31 21.9779C198.287 21.6256 197.252 21.2949 196.207 20.9852C189.602 19.0303 182.614 17.9831 175.377 17.9831C168.14 17.9831 161.152 19.0303 154.546 20.9852C153.502 21.2949 152.467 21.6256 151.444 21.9779L151.438 21.9931L175.377 39.3842Z" />
<path d="M116.869 47.1188C116.21 47.9869 115.572 48.8702 114.953 49.769C107.164 61.0825 102.474 74.6851 102.091 89.3623C102.076 90.006 102.067 90.6464 102.067 91.2931C102.067 91.7425 102.07 92.1916 102.079 92.638L126.009 75.2531L116.869 47.1188Z" />
<path d="M144.866 133.288H115.281C115.906 134.183 116.553 135.064 117.218 135.929C125.763 147.048 137.429 155.648 150.907 160.417C151.93 160.778 152.962 161.118 154.003 161.437L154.009 161.431L144.866 133.288Z" />
<path d="M196.745 161.431L196.751 161.437C197.792 161.118 198.824 160.779 199.847 160.417C213.325 155.648 224.991 147.048 233.537 135.929C234.201 135.064 234.848 134.183 235.473 133.288H205.888L196.745 161.431Z" />
<path d="M248.662 89.3625C248.28 74.6854 243.59 61.0828 235.8 49.7692C235.181 48.8707 234.544 47.9874 233.885 47.119L224.745 75.2531L248.675 92.638C248.684 92.1918 248.687 91.7424 248.687 91.293C248.687 90.6464 248.678 90.0059 248.662 89.3625Z" />
<path d="M175.377 15.0031C133.217 14.616 97.9614 50.5194 99.1001 92.6917C99.3143 128.747 127.223 161.164 162.864 166.519C164.288 166.519 165.548 165.495 165.798 164.044C166.076 162.422 164.988 160.881 163.366 160.601C161.013 160.196 158.662 159.664 156.359 159.018L148.173 133.822L162.089 114.91H188.665L202.581 133.822L194.378 159.072C192.09 159.704 189.759 160.218 187.389 160.601C185.766 160.88 184.678 162.422 184.957 164.044C185.237 165.666 186.78 166.754 188.4 166.475C224.398 160.629 252.071 127.817 251.667 91.2935C252.027 49.6507 216.999 14.627 175.377 15.0031ZM207.395 130.308L193.479 111.396L201.686 86.1358L224.237 78.567L245.667 94.1362C245.272 107.233 240.95 119.721 233.829 130.307H207.395V130.308ZM143.359 130.308H116.948C109.81 119.651 105.488 107.111 105.057 94.1579L126.517 78.567L149.067 86.1355L157.275 111.395L143.359 130.308ZM105.177 86.7035C105.863 74.7397 109.723 63.492 115.905 53.7978L122.506 74.1145L105.177 86.7035ZM154.942 84.9262L175.377 70.0792L195.812 84.9262L188.007 108.95H162.747L154.942 84.9262ZM228.248 74.1148L234.849 53.7981C241.031 63.4929 244.892 74.7406 245.577 86.7041L228.248 74.1148ZM230.542 47.7658L222.375 72.9052L199.825 80.4737L178.357 64.8768V40.9027L199.83 25.3035C211.929 29.8505 222.565 37.7259 230.542 47.7658ZM192.76 23.0723L175.377 35.7007L157.995 23.0726C163.582 21.6397 169.41 20.901 175.377 20.9633C181.344 20.9004 187.172 21.6391 192.76 23.0723ZM150.925 25.3037L172.397 40.9027V64.8768L150.93 80.4737L128.38 72.9052L120.212 47.7652C128.188 37.7256 138.825 29.8508 150.925 25.3037ZM121.398 136.268H142.701L149.339 156.699C138.414 152.414 128.832 145.234 121.398 136.268ZM201.415 156.699L208.053 136.268H229.358C221.907 145.202 212.309 152.34 201.415 156.699Z" fill="#252729"/>
<path d="M175.376 167.583C177.022 167.583 178.356 166.249 178.356 164.603C178.356 162.957 177.022 161.623 175.376 161.623C173.73 161.623 172.396 162.957 172.396 164.603C172.396 166.249 173.73 167.583 175.376 167.583Z" fill="#252729"/>
<path d="M139.088 130.415L144.042 125.461L166.338 147.757L161.384 152.711L139.088 130.415Z" />
<path d="M67.2444 88.3001L72.1988 83.3456L106.882 118.029L101.928 122.983L67.2444 88.3001Z" />
<path d="M49.9023 100.687L54.8578 95.7318L92.0184 132.892L87.0629 137.848L49.9023 100.687Z" />
<path d="M42.4709 122.983L47.4254 118.028L77.1542 147.757L72.1998 152.711L42.4709 122.983Z" />
<path d="M77.154 152.711L62.2896 167.576L30.0835 135.37C25.9794 131.265 25.9794 124.61 30.0835 120.506C34.1887 116.401 40.8438 116.401 44.948 120.505L77.154 152.711Z" />
<path d="M37.4 98.3266L37.6328 98.0937C41.6735 94.053 48.2237 94.052 52.2644 98.0927L92.0186 137.847L77.1541 152.711L37.4 112.957C33.3593 108.916 33.3593 102.367 37.4 98.3266Z" />
<path d="M106.882 122.983L92.0187 137.847L42.471 88.2991C38.3669 84.195 38.3658 77.5409 42.471 73.4357C46.5751 69.3316 53.2303 69.3316 57.3344 73.4357L106.882 122.983Z" />
<path d="M121.746 108.119L106.882 122.983L69.7215 85.823C65.6174 81.7189 65.6174 75.0637 69.7225 70.9586C73.8266 66.8545 80.4818 66.8545 84.5859 70.9586L121.746 108.119Z" />
<path d="M44.9478 130.416L49.9033 125.461L77.1538 152.711L72.1983 157.667L44.9478 130.416Z" fill="white"/>
<path d="M52.3794 108.119L57.3349 103.164L92.0182 137.847L87.0627 142.802L52.3794 108.119Z" fill="white"/>
<path d="M84.5854 80.8675L89.5399 75.913L121.746 108.119L116.792 113.074L84.5854 80.8675Z" fill="white"/>
<path d="M57.335 83.3456L62.2894 78.3912L106.882 122.983L101.927 127.938L57.335 83.3456Z" fill="white"/>
<path d="M29.9671 120.622L30.2 120.39C34.2407 116.349 40.7919 116.349 44.8315 120.389L52.3807 127.938L37.5163 142.802L29.9671 135.253C25.9275 131.213 25.9275 124.662 29.9671 120.622Z" fill="white"/>
<path d="M37.3997 98.3266L37.6326 98.0937C41.6733 94.053 48.2234 94.052 52.2641 98.0927L59.8123 105.641L44.9478 120.505L37.3997 112.957C33.359 108.916 33.359 102.367 37.3997 98.3266Z" fill="white"/>
<path d="M42.4707 73.4358C46.5749 69.3317 53.23 69.3317 57.3341 73.4358L64.7668 80.8685L49.9035 95.7319L42.4707 88.2992C38.3666 84.1951 38.3656 77.541 42.4707 73.4358Z" fill="white"/>
<path d="M69.6056 71.0749L69.8385 70.8421C73.8781 66.8024 80.4283 66.8014 84.469 70.8421L92.0181 78.3912L77.1537 93.2556L69.6046 85.7065C65.5639 81.6658 65.5649 75.1156 69.6056 71.0749Z" fill="white"/>
<path d="M119.269 219.601L176.248 162.621L196.067 182.44L139.088 239.419L119.269 219.601Z" fill="white"/>
<path d="M166.084 108.563C166.398 101.798 161.169 96.0593 154.403 95.7433C153.665 95.71 152.926 95.7422 152.193 95.841C146.162 96.8514 141.7 102.005 141.565 108.118V127.938L119.269 105.642L59.8123 165.098L95.8854 201.172L97.7628 202.837L119.502 219.368L176.248 162.621L166.338 152.711L166.084 108.563Z" />
<path d="M196.067 182.44L163.861 214.646C158.388 220.118 149.515 220.118 144.042 214.645C138.57 209.173 138.57 200.299 144.042 194.827L176.248 162.621L196.067 182.44Z" />
<path d="M74.6753 165.099L79.6308 160.143L84.5863 165.099L79.6308 170.054L74.6753 165.099Z" fill="white"/>
<path d="M84.5854 155.189L89.5399 150.234L94.4954 155.19L89.5409 160.144L84.5854 155.189Z" fill="white"/>
<path d="M94.4946 145.28L99.4501 140.324L104.406 145.28L99.4501 150.235L94.4946 145.28Z" fill="white"/>
<path d="M134.132 184.917L139.088 179.962L144.043 184.917L139.088 189.873L134.132 184.917Z" fill="white"/>
<path d="M144.042 175.007L148.997 170.053L153.952 175.008L148.998 179.963L144.042 175.007Z" fill="white"/>
<path d="M153.951 165.098L158.906 160.143L163.862 165.098L158.906 170.054L153.951 165.098Z" fill="white"/>
<path d="M94.4956 170.053L126.701 137.848L146.52 157.667L114.314 189.872L94.4956 170.053Z" fill="white"/>
<path d="M152.193 95.8409C146.161 96.8514 141.7 102.005 141.566 108.119L141.565 127.938L166.338 139.421L166.083 108.563C166.397 101.798 161.169 96.0582 154.404 95.7443C153.665 95.71 152.926 95.7422 152.193 95.8409Z" />
<path d="M152.193 95.841C146.162 96.8514 141.7 102.005 141.566 108.119L141.558 118.319L166.148 119.765L166.084 108.563C166.397 101.798 161.17 96.0582 154.403 95.7432C153.665 95.71 152.926 95.7422 152.193 95.841Z" fill="white"/>
<path d="M166.286 143.671L141.565 127.938L166.338 152.711L166.286 143.671Z" fill="white"/>
<path d="M151.754 92.3647C143.986 93.6382 138.226 100.263 138.047 108.135L138.054 119.473L87.0626 68.4812C81.5894 63.008 72.717 63.0091 67.2448 68.4812C65.5098 70.237 64.2748 72.4221 63.6667 74.8141L59.811 70.9585C54.3389 65.4863 45.4664 65.4853 39.9932 70.9585C34.52 76.4316 34.52 85.3052 39.9922 90.7773L41.3623 92.1474C38.9277 92.794 36.7072 94.0706 34.9213 95.8482C29.9055 100.897 29.5437 108.929 34.0845 114.409C31.6363 115.005 29.3972 116.256 27.606 118.029C22.1339 123.501 22.1339 132.375 27.606 137.847L93.5567 203.797L116.276 221.315C116.412 221.59 116.585 221.848 116.791 222.078L136.61 241.897C137.978 243.265 140.197 243.265 141.565 241.897L198.544 184.917C199.912 183.549 199.912 181.331 198.544 179.963L169.834 151.253L169.584 108.724C169.983 100.025 163.256 92.6495 154.559 92.2504C153.619 92.2067 152.679 92.2472 151.747 92.372L151.754 92.3647ZM119.184 214.73L100.086 200.214L64.7665 165.098L119.269 110.596L171.294 162.621L119.184 214.73ZM114.314 105.642L104.404 115.552L82.1082 93.2556L92.0181 83.3456L114.314 105.642ZM67.2438 88.3001L99.4498 120.506L89.5409 130.415L54.8576 95.7318L64.7665 85.8229L67.2438 88.3001ZM84.5854 135.371L74.6765 145.279L49.9032 120.506L59.8121 110.597L84.5854 135.371ZM69.722 150.234L59.8121 160.144L42.4704 142.802L52.3804 132.892L69.722 150.234ZM72.1993 73.4357C74.9353 70.6996 79.3721 70.6996 82.1082 73.4357L87.0626 78.3901L77.1527 88.3001L72.1982 83.3456C69.4621 80.6096 69.4621 76.1728 72.1993 73.4357ZM44.9477 75.9129C47.6837 73.1768 52.1205 73.1768 54.8576 75.914L59.8121 80.8684L49.9032 90.7773L44.9477 85.8218C42.2116 83.0858 42.2116 78.649 44.9477 75.9129ZM40.1096 100.571C42.7833 97.9013 47.113 97.9023 49.7857 100.571L54.8566 105.642L44.9477 115.551L39.8768 110.48C37.2031 107.744 37.253 103.359 39.9891 100.685C40.0296 100.647 40.0691 100.607 40.1096 100.571ZM32.5605 122.983C35.2976 120.246 39.7344 120.246 42.4704 122.982L47.4259 127.938L37.516 137.848L32.5605 132.892C29.8244 130.156 29.8244 125.719 32.5605 122.983ZM124.223 219.6L136.675 207.149C137.662 214.912 143.776 221.026 151.539 222.013L139.088 234.465L124.223 219.6ZM191.112 182.44L161.384 212.169C157.28 216.273 150.624 216.273 146.519 212.168C142.415 208.064 142.415 201.409 146.519 197.304L176.248 167.576L191.112 182.44ZM145.068 126.487V122.027L162.67 123.06L162.786 144.205L145.068 126.487ZM162.58 108.582L162.618 116.052L145.065 115.024L145.058 108.303C145.113 103.882 148.292 100.119 152.641 99.3265C155.234 98.9627 157.852 99.7808 159.775 101.556C161.714 103.362 162.742 105.939 162.58 108.582Z" fill="#252729"/>
<path d="M74.6753 165.099L79.6308 160.143L84.5863 165.099L79.6308 170.054L74.6753 165.099Z" fill="#252729"/>
<path d="M84.5854 155.189L89.5399 150.234L94.4954 155.19L89.5409 160.144L84.5854 155.189Z" fill="#252729"/>
<path d="M94.4946 145.28L99.4501 140.324L104.406 145.28L99.4501 150.235L94.4946 145.28Z" fill="#252729"/>
<path d="M134.132 184.917L139.088 179.962L144.043 184.917L139.088 189.873L134.132 184.917Z" fill="#252729"/>
<path d="M144.042 175.007L148.997 170.053L153.952 175.008L148.998 179.963L144.042 175.007Z" fill="#252729"/>
<path d="M153.951 168.098L158.906 163.143L163.862 168.098L158.906 173.054L153.951 168.098Z" fill="#252729"/>
<path d="M148.998 158.188L129.179 138.369C127.811 137.001 125.592 137.001 124.223 138.37L92.0182 170.576C90.6502 171.944 90.6502 174.162 92.0182 175.53L111.837 195.349C113.205 196.717 115.424 196.717 116.792 195.349L148.997 163.144C150.366 161.775 150.366 159.556 148.998 158.188ZM141.565 160.667L114.314 187.917L99.4499 173.053L126.7 145.802L141.565 160.667Z" fill="#252729"/>
</svg>
