<svg width="252" height="255" viewBox="0 0 252 255" fill="none" xmlns="http://www.w3.org/2000/svg">
<path opacity="0.2" d="M126 251C195.588 251 252 195.259 252 126.5C252 57.7405 195.588 2 126 2C56.4121 2 0 57.7405 0 126.5C0 195.259 56.4121 251 126 251Z" />
<path d="M134.85 205.86L126.845 181.222L104.582 173.75L83.6318 188.97C83.8711 202.197 88.1099 214.446 95.1897 224.558H121.091L134.85 205.86Z" fill="white"/>
<path d="M126.845 181.222L147.803 165.995V142.348L126.845 127.122L126.85 127.109C114.689 131.308 104.186 139.06 96.5803 149.119L104.582 173.75L126.845 181.222Z" fill="white"/>
<path d="M147.802 142.348V165.996L168.76 181.223L191.023 173.75L199.025 149.12C191.419 139.061 180.916 131.308 168.755 127.109L168.76 127.123L147.802 142.348Z" fill="white"/>
<path d="M168.76 181.222L160.755 205.86L174.514 224.558H200.415C207.495 214.446 211.734 202.197 211.973 188.97L191.023 173.75L168.76 181.222Z" fill="white"/>
<path d="M174.514 224.558L160.755 205.86H134.85L121.091 224.558L129.095 249.197L129.09 249.203C135.011 251.004 141.291 251.975 147.802 251.975C154.313 251.975 160.593 251.004 166.514 249.203L166.509 249.197L174.514 224.558Z" fill="white"/>
<path d="M126.844 181.222L134.849 205.86H160.755L168.76 181.222L147.802 165.996L126.844 181.222Z" />
<path d="M147.802 142.348L168.76 127.122L168.755 127.109C167.859 126.801 166.953 126.511 166.039 126.24C160.256 124.528 154.138 123.612 147.802 123.612C141.466 123.612 135.349 124.528 129.565 126.24C128.651 126.511 127.745 126.801 126.849 127.109L126.844 127.122L147.802 142.348Z" />
<path d="M96.5795 149.119C96.0029 149.879 95.4446 150.653 94.9024 151.439C88.083 161.344 83.977 173.253 83.642 186.103C83.6287 186.666 83.6206 187.227 83.6206 187.793C83.6206 188.186 83.6232 188.579 83.6313 188.97L104.581 173.75L96.5795 149.119Z" />
<path d="M121.09 224.558H95.1892C95.7366 225.342 96.3027 226.113 96.8848 226.87C104.366 236.605 114.579 244.134 126.379 248.309C127.275 248.626 128.178 248.923 129.09 249.202L129.095 249.197L121.09 224.558Z" />
<path d="M166.51 249.197L166.515 249.202C167.426 248.923 168.33 248.626 169.225 248.309C181.025 244.134 191.238 236.605 198.72 226.87C199.302 226.113 199.868 225.342 200.415 224.558H174.514L166.51 249.197Z" />
<path d="M211.962 186.103C211.627 173.253 207.521 161.344 200.702 151.44C200.159 150.653 199.601 149.88 199.025 149.12L191.023 173.75L211.973 188.97C211.981 188.58 211.983 188.186 211.983 187.793C211.983 187.227 211.975 186.666 211.962 186.103Z" />
<path d="M147.802 121.003C110.892 120.664 80.0266 152.096 81.0235 189.017C81.2111 220.583 105.645 248.963 136.847 253.651C138.094 253.651 139.197 252.755 139.416 251.484C139.66 250.065 138.707 248.715 137.287 248.471C135.227 248.116 133.169 247.65 131.153 247.085L123.986 225.026L136.169 208.469H159.436L171.619 225.026L164.437 247.132C162.434 247.685 160.393 248.135 158.318 248.471C156.898 248.715 155.945 250.064 156.19 251.484C156.434 252.905 157.786 253.857 159.203 253.613C190.719 248.495 214.946 219.769 214.593 187.793C214.907 151.336 184.242 120.673 147.802 121.003ZM175.833 221.949L163.65 205.392L170.835 183.278L190.578 176.652L209.34 190.282C208.994 201.748 205.21 212.681 198.976 221.949H175.833ZM119.771 221.949H96.6488C90.4 212.62 86.6159 201.641 86.2389 190.301L105.026 176.652L124.769 183.278L131.954 205.392L119.771 221.949ZM86.344 183.775C86.9443 173.301 90.3235 163.454 95.7359 154.967L101.515 172.753L86.344 183.775ZM129.912 182.219L147.802 169.221L165.693 182.219L158.859 203.251H136.745L129.912 182.219ZM194.09 172.754L199.868 154.967C205.281 163.454 208.661 173.302 209.261 183.775L194.09 172.754ZM196.098 149.686L188.948 171.695L169.206 178.321L150.411 164.666V143.677L169.21 130.02C179.802 134.001 189.114 140.896 196.098 149.686ZM163.021 128.067L147.802 139.123L132.584 128.067C137.476 126.813 142.578 126.166 147.802 126.221C153.026 126.166 158.129 126.812 163.021 128.067ZM126.395 130.021L145.193 143.677V164.666L126.399 178.321L106.657 171.695L99.5066 149.685C106.49 140.896 115.801 134.002 126.395 130.021ZM100.545 227.167H119.195L125.006 245.055C115.442 241.303 107.053 235.017 100.545 227.167ZM170.598 245.055L176.409 227.167H195.062C188.539 234.989 180.136 241.238 170.598 245.055Z" fill="#252729"/>
<path d="M147.802 254.583C149.243 254.583 150.411 253.415 150.411 251.974C150.411 250.533 149.243 249.365 147.802 249.365C146.361 249.365 145.193 250.533 145.193 251.974C145.193 253.415 146.361 254.583 147.802 254.583Z" fill="#252729"/>
<path d="M88 129C91.866 129 95 125.866 95 122C95 118.134 91.866 115 88 115C84.134 115 81 118.134 81 122C81 125.866 84.134 129 88 129Z" fill="white"/>
<path d="M163 145C166.866 145 170 141.866 170 138C170 134.134 166.866 131 163 131C159.134 131 156 134.134 156 138C156 141.866 159.134 145 163 145Z" fill="white"/>
<path d="M202 155C205.866 155 209 151.866 209 148C209 144.134 205.866 141 202 141C198.134 141 195 144.134 195 148C195 151.866 198.134 155 202 155Z" fill="white"/>
<path d="M229.935 127.944C228.382 134.972 220.637 139.235 212.637 137.467L144.61 122.431C142.003 121.855 139.704 120.392 138.219 118.366C136.726 116.329 134.415 114.859 131.795 114.28L119.452 111.552C114.37 110.429 109.105 111.125 104.814 113.487L83.6489 108.809C76.5965 107.25 71.7364 101.461 71.8875 95.3006L70.9648 99.4754C69.4345 106.399 74.5832 113.423 82.4646 115.165L103.629 119.843C107.92 117.481 113.186 116.785 118.268 117.908L130.611 120.636C133.231 121.215 135.541 122.685 137.034 124.722C138.52 126.748 140.818 128.211 143.425 128.787L211.453 143.823C219.453 145.591 227.197 141.327 228.751 134.3L231.563 121.576L231.353 121.529L229.935 127.944Z" fill="white"/>
<path d="M231.353 121.529L232.747 115.22L74.9615 80.3951L72.1491 93.1194C71.9882 93.8475 71.9051 94.5765 71.8876 95.3006L73.7772 86.7511L231.353 121.529Z" />
<path d="M83.6485 108.809L104.813 113.487C109.104 111.125 114.37 110.429 119.451 111.552L131.795 114.28C134.415 114.859 136.725 116.329 138.218 118.366C139.704 120.393 142.002 121.855 144.609 122.431L212.637 137.467C220.637 139.235 228.381 134.971 229.934 127.944L231.352 121.529L73.7771 86.7511L71.8874 95.3006C71.7363 101.461 76.5962 107.25 83.6485 108.809Z" />
<path d="M80.3873 56.8445L77.0929 71.7487L80.3872 56.8443L80.3873 56.8445Z" />
<path d="M225.167 107.441L175.262 74.7339C168.124 70.0558 160.064 66.675 151.577 64.799L145.682 63.4961L143.996 71.1264C142.859 76.2687 137.77 79.5164 132.627 78.3811L108.822 73.1255C104.318 72.1301 100.464 69.3771 98.3615 65.6545L95.9839 61.4446C93.8885 57.7341 90.0464 54.9905 85.5577 53.9981C83.1668 53.4697 80.852 54.7438 80.3878 56.844L77.0934 71.7481C75.5631 78.6714 80.7118 85.6956 88.5932 87.4376L109.758 92.1158C114.049 89.7538 119.314 89.0576 124.396 90.1808L136.739 92.9089C139.359 93.488 141.67 94.9576 143.163 96.9946C144.649 99.021 146.947 100.483 149.554 101.06L217.581 116.095C222.426 117.166 227.176 116.022 230.514 113.394C229.383 111.084 227.561 109.01 225.167 107.441Z" />
<path d="M182.635 79.5662L164.636 91.049L152.442 83.2458L170.369 71.8087L182.635 79.5662Z" fill="white"/>
<path d="M88.5926 87.4379L109.757 92.1161C111.169 91.3393 112.687 90.7461 114.268 90.3353L99.9857 67.9474C99.3693 67.2339 98.821 66.469 98.3611 65.6546L97.1114 63.442L94.4223 59.2268C92.2264 56.6532 89.0948 54.7802 85.5573 53.9983C83.1664 53.4698 80.8516 54.7439 80.3873 56.8446L73.7771 86.7513L77.0931 71.7485C75.5629 78.6718 80.7113 85.6962 88.5926 87.4379Z" />
<path d="M217.581 116.095L149.554 101.06C146.947 100.484 144.648 99.0214 143.163 96.9948C141.67 94.9581 139.359 93.4882 136.739 92.9091L124.396 90.1809C120.986 89.4272 117.494 89.4966 114.269 90.3351C112.688 90.7463 111.17 91.339 109.758 92.116L88.593 87.4378C80.7115 85.6958 75.5631 78.6714 77.0931 71.7483L73.7771 86.7511C72.2469 93.6744 77.3955 100.699 85.277 102.441L106.442 107.119C110.733 104.757 115.998 104.06 121.08 105.184L133.423 107.912C136.043 108.491 138.354 109.96 139.847 111.998C141.332 114.024 143.631 115.486 146.238 116.063L214.265 131.098C222.265 132.866 230.01 128.603 231.563 121.576C232.175 118.804 231.77 115.954 230.515 113.394C227.176 116.022 222.427 117.167 217.581 116.095Z" fill="white"/>
<path d="M206.77 95.384L189.245 106.564L177.051 98.7609L194.721 87.4876L206.77 95.384Z" fill="white"/>
<path d="M226.837 104.894L176.932 72.1864C175.284 71.1066 173.594 70.0996 171.87 69.1585C171.852 69.1484 171.834 69.1389 171.816 69.129C165.717 65.8071 159.155 63.3544 152.234 61.8247L146.339 60.522C144.696 60.1591 143.071 61.1961 142.707 62.839L141.021 70.4694C140.248 73.9636 136.778 76.1786 133.283 75.4072L109.48 70.1513C106.698 69.5367 104.195 68.0783 102.425 66.1065L99.7239 61.8733L98.6359 59.9464C98.1065 59.009 97.4854 58.1295 96.7926 57.3075C96.7901 57.3041 96.7872 57.3012 96.7845 57.2982C94.1617 54.1912 90.4508 51.9601 86.2148 51.0236C84.3356 50.6085 82.4056 50.8721 80.7806 51.7668C79.0529 52.7191 77.8232 54.3303 77.4127 56.1867L70.8032 86.0916C70.803 86.0925 70.8029 86.0929 70.8027 86.0937L67.9903 98.818C66.2872 106.525 71.154 114.323 79.0911 117.328L78.1526 121.574C77.0654 126.494 80.1834 131.382 85.1035 132.47L86.0335 132.675C88.4937 133.219 90.9455 132.711 92.9183 131.452C94.8913 130.194 96.385 128.184 96.9289 125.724L97.823 121.679L102.972 122.817C103.694 122.977 104.45 122.868 105.099 122.511C108.718 120.519 113.278 119.925 117.61 120.882L129.953 123.61C131.841 124.028 133.527 125.089 134.578 126.522C136.511 129.16 139.42 131.021 142.768 131.761L153.978 134.239L153.115 138.143C152.027 143.063 155.146 147.95 160.065 149.038L160.995 149.244C160.995 149.243 160.995 149.243 160.995 149.243C163.456 149.787 165.907 149.28 167.88 148.021C169.853 146.762 171.347 144.752 171.891 142.293L172.754 138.389L192.163 142.679L191.3 146.583C190.212 151.503 193.33 156.39 198.251 157.478L199.181 157.684C201.641 158.227 204.092 157.72 206.065 156.461C208.038 155.202 209.532 153.193 210.076 150.732L210.939 146.825C215.485 147.796 220.114 147.161 223.989 145.028C224.32 144.846 224.642 144.654 224.955 144.455C228.472 142.211 230.859 138.875 231.726 134.957L234.538 122.233C235.979 115.71 232.956 108.904 226.837 104.894ZM173.592 77.2817L177.025 79.5318L164.639 87.4341L158.1 83.2497L170.468 75.3591C171.525 75.9718 172.568 76.6105 173.592 77.2817ZM201.16 95.3496L189.247 102.949L182.709 98.7651L194.699 91.1153L201.16 95.3496ZM83.3617 57.502C83.4055 57.3028 83.6036 57.1677 83.7185 57.1042C84.0417 56.9261 84.4723 56.8784 84.8997 56.9728C87.6992 57.5918 90.2156 59.0692 91.9813 61.0649L94.5007 65.014L95.7085 67.1529C96.236 68.0868 96.8539 68.9637 97.5434 69.7834L108.109 86.3452C109.014 87.7635 110.898 88.1796 112.316 87.2749C113.734 86.3702 114.15 84.4869 113.245 83.0685L108.904 76.2635L131.97 81.3562C138.744 82.8514 145.473 78.5569 146.97 71.784L147.999 67.1282L150.919 67.7737C155.527 68.7923 159.962 70.2535 164.185 72.1409L150.803 80.6777C149.927 81.2367 149.396 82.2042 149.395 83.2437C149.395 84.2832 149.924 85.2513 150.8 85.8114L162.994 93.6146C163.993 94.2542 165.273 94.2552 166.274 93.6169L182.612 83.1936L189.112 87.4533L175.412 96.1931C174.536 96.7521 174.005 97.7196 174.004 98.7591C174.004 99.7986 174.533 100.767 175.409 101.327L187.603 109.13C188.602 109.769 189.883 109.77 190.883 109.132L206.747 99.0113L223.497 109.989C227.48 112.599 229.478 116.889 228.588 120.917V120.918L228.587 120.921C227.397 126.295 221.268 129.526 214.922 128.123L146.895 113.088C145.02 112.673 143.346 111.62 142.303 110.197C140.362 107.548 137.442 105.681 134.08 104.938L121.737 102.209C116.303 101.009 110.771 101.614 106.025 103.907L85.9342 99.4667C79.7054 98.09 75.586 92.6808 76.7514 87.4092L83.3617 57.502ZM90.9801 124.41C90.6177 126.049 88.9884 127.089 87.3483 126.726L86.4183 126.521C84.7783 126.158 83.7389 124.529 84.1014 122.889L84.9641 118.985L91.843 120.505L90.9801 124.41ZM166.805 137.074L165.941 140.978C165.579 142.617 163.95 143.657 162.31 143.295L161.38 143.089C159.74 142.726 158.701 141.097 159.063 139.457L159.926 135.553L164.275 136.514L166.805 137.074ZM200.495 151.735L199.565 151.529C197.925 151.167 196.885 149.537 197.248 147.897L198.111 143.993L204.99 145.514L204.126 149.418C203.764 151.058 202.135 152.097 200.495 151.735ZM221.05 139.691C218.432 141.132 215.256 141.543 212.11 140.848L171.096 131.783C171.095 131.782 171.095 131.782 171.094 131.782L158.267 128.947C158.266 128.947 158.265 128.947 158.265 128.947L144.083 125.812C142.208 125.398 140.534 124.344 139.491 122.921C137.549 120.272 134.629 118.405 131.268 117.661L118.924 114.933C113.49 113.732 107.958 114.338 103.212 116.631L83.1219 112.191C76.8931 110.814 72.7737 105.405 73.9391 100.133L74.1647 99.1126C76.6697 102.149 80.3012 104.461 84.6195 105.415L105.784 110.093C106.507 110.252 107.263 110.144 107.911 109.787C111.53 107.794 116.091 107.201 120.422 108.158L132.766 110.886C134.654 111.303 136.339 112.365 137.39 113.798C139.323 116.436 142.232 118.296 145.58 119.036L213.608 134.072C218.016 135.046 222.37 134.457 225.983 132.706L225.776 133.642C225.217 136.173 223.539 138.32 221.05 139.691Z" fill="#252729"/>
<path d="M118.734 97.3365C119.409 96.9056 119.897 96.2081 120.07 95.4258C120.242 94.6435 120.095 93.8055 119.664 93.1301C119.233 92.4547 118.535 91.9675 117.753 91.7946C116.971 91.6216 116.133 91.7695 115.457 92.2004C114.782 92.6313 114.295 93.3288 114.122 94.1111C113.949 94.8934 114.097 95.7314 114.528 96.4068C114.959 97.0822 115.656 97.5694 116.438 97.7423C117.221 97.9153 118.059 97.7674 118.734 97.3365Z" fill="#252729"/>
</svg>
