<svg width="72" height="51" viewBox="0 0 72 51" fill="none" xmlns="http://www.w3.org/2000/svg">
<rect width="72" height="51" rx="10" fill="#FAFAFA"/>
<path d="M40.5349 23.2931L40.3805 25.314L37.9596 26.6329L33.5388 24.2169C33.5388 24.2169 33.8546 22.9879 33.8897 22.4004C33.9248 21.8128 33.8686 20.1642 33.8686 20.1642L34.1365 21.1134L34.5935 22.0626L34.9099 22.4004L35.3669 22.7306L36.281 23.2931L37.406 23.8556L38.0388 24.0665L38.6716 24.1368L39.9724 23.6798L40.324 23.4689L40.5349 23.2931Z" fill="#4DAABC" fill-opacity="0.4"/>
<path d="M38.4326 25.986C38.4326 25.986 38.1936 26.1688 37.9686 26.1688C37.7436 26.1688 37.4834 25.986 37.4834 25.986H36.5482L34.4529 28.3415L39.7826 43.304H40.6475C40.6475 43.304 42.8272 32.9118 42.4053 31.6954C41.9834 30.479 40.6826 25.4165 40.6826 25.4165L39.4873 25.8735L38.4326 25.986Z" fill="#4DAABC" fill-opacity="0.2"/>
<path d="M38.9318 27.9688C38.9318 27.9688 40.1975 32.4547 40.2537 33.9594C40.31 35.4571 40.6475 43.304 40.6475 43.304L38.4607 43.3251C38.4607 43.3251 37.5889 34.2758 37.6029 33.5587C37.624 32.8415 37.4975 28.0954 37.4975 28.0954L38.9318 27.9688Z" fill="#4DAABC" fill-opacity="0.2"/>
<path d="M38.4398 26.0001H37.4906L36.4641 26.5626C36.4641 26.5626 36.8016 27.9266 37.1602 28.2782C37.3711 28.4891 37.6875 28.8055 38.2641 28.7633C38.7352 28.7282 39.0164 28.2571 39.157 28.0391C39.3891 27.6805 39.7617 26.8368 39.7617 26.8368L38.4398 26.0001Z" fill="#4DAABC" fill-opacity="0.2"/>
<path d="M40.4156 24.0313C40.4156 24.0313 39.7828 25.3672 39.1641 25.6485C38.5453 25.9297 38.4398 26.0001 38.4398 26.0001C38.4398 26.0001 39.1219 26.5555 39.5508 26.9352C39.9164 27.2587 41.2383 28.6579 41.2383 28.6579C41.2383 28.6579 40.8305 24.9665 40.725 24.5938C40.6195 24.2212 40.4156 24.0313 40.4156 24.0313Z" fill="#4DAABC" fill-opacity="0.2"/>
<path d="M34.8887 28.3556C34.8887 28.3556 37.0191 26.1408 37.4902 26.0002C37.4902 26.0002 33.5176 23.8556 33.6582 23.0259C33.6582 23.0259 32.7582 23.6798 32.9832 24.3689C33.2082 25.058 34.8887 28.3556 34.8887 28.3556Z" fill="#4DAABC" fill-opacity="0.2"/>
<path d="M33.0257 23.7852C33.0257 23.7852 31.521 25.3672 31.2187 25.4587C30.9164 25.5501 24.5882 27.6383 24.1171 28.1094C23.646 28.5805 22.9218 30.943 22.971 32.3282C23.0203 33.7133 21.9867 33.404 22.057 35.2602C22.1273 37.1094 21.5859 37.1094 21.6843 37.5313C21.7757 37.9532 22.1062 37.9321 22.0851 38.2344C22.064 38.5368 21.6843 40.8852 21.8742 41.7501C22.064 42.6149 21.4734 43.318 21.4734 43.318H40.1765C40.1765 43.318 36.8015 33.3337 36.3867 31.6251C35.7468 28.9321 33.0187 24.8047 33.0257 24.2422C33.0257 23.7501 33.0257 23.7852 33.0257 23.7852Z" fill="#4DAABC" fill-opacity="0.2"/>
<path d="M40.7248 24.5938C40.7248 24.5938 41.1889 26.0001 41.4209 26.0915C41.6529 26.1829 45.2318 27.8282 46.2162 28.011C47.2006 28.2008 47.4115 28.0321 47.8123 28.3626C48.2131 28.693 48.8881 30.4227 49.0076 31.0555C49.1271 31.6883 49.4506 31.9696 49.4506 32.2298C49.4506 32.4899 49.4506 33.1227 49.6404 33.3055C49.8303 33.4954 49.7318 34.0298 49.9217 34.5219C50.1115 35.0141 50.7443 36.6102 50.5756 36.9126C50.4139 37.2149 50.7162 37.8477 50.9061 38.368C51.0959 38.8883 51.0959 40.3579 51.1873 40.8501C51.2787 41.3423 51.7568 43.311 51.7568 43.311H40.1693C40.1693 43.311 41.4561 34.7821 41.3154 33.1157C40.7318 26.1407 40.7248 24.5938 40.7248 24.5938Z" fill="#4DAABC" fill-opacity="0.2"/>
<path d="M33.0254 23.7852L31.2184 25.4587L32.1254 29.0446L33.6793 30.1274L32.8567 31.7938L40.1692 43.3251C40.1692 43.3251 36.3512 30.3172 35.6903 28.9813C34.9239 27.4063 33.0254 23.7852 33.0254 23.7852Z" fill="#4DAABC" fill-opacity="0.2"/>
<path d="M40.1695 43.318C40.1695 43.318 41.2734 33.8469 41.1328 32.6094C40.9922 31.3719 40.725 24.5938 40.725 24.5938C40.725 24.5938 41.2102 25.7188 41.5266 26.0001C41.843 26.2813 43.4531 26.9844 43.4531 26.9844V30.479L42.4406 31.4422L43.2844 32.8485L40.1695 43.318Z" fill="#4DAABC" fill-opacity="0.2"/>
<path d="M38.3691 24.1226C39.1777 24.1719 40.7527 23.4687 41.2027 22.625C41.6527 21.7812 42.3277 20.3258 42.4191 19.8828C42.5105 19.4398 42.5879 19.0461 42.616 18.8703C42.6441 18.6945 43.1855 17.4922 42.9395 17.3586C42.6934 17.225 42.5668 17.4641 42.5668 17.4641L43.1152 14.75L42.9535 12.2328L41.8777 11.2625L40.0496 11.0305L36.4988 11.1359L34.7691 12.8516L34.3262 14.9609L34.1645 16.775C34.1645 16.775 33.5457 15.4883 33.0746 15.8258C32.6035 16.1633 32.3855 16.8453 32.4418 17.3234C32.498 17.8016 32.5895 18.2656 32.6387 18.5047C32.6738 18.6875 33.3277 19.475 33.5387 19.475C33.7496 19.475 33.7496 19.475 33.7496 19.475C33.7496 19.475 33.8199 20.0445 33.8762 20.3047C33.9184 20.5156 34.291 21.9078 34.7832 22.3367C35.2543 22.7375 37.3988 24.0594 38.3691 24.1226Z" fill="#4DAABC" fill-opacity="0.2"/>
<path d="M42.5739 17.4642C42.5739 17.4642 44.3318 13.597 43.4177 11.7688C42.5036 9.94072 40.5349 8.33057 38.4396 8.7665C36.3443 9.20244 35.156 10.236 34.7341 10.4259C34.3122 10.6157 33.2927 11.5017 33.2224 12.5915L32.9833 15.9032C32.9833 15.9032 33.0818 15.6642 33.3982 15.9735C33.7146 16.2829 34.1575 17.0071 34.1575 17.0071C34.1575 17.0071 35.2544 15.3196 35.3036 14.4548C35.3528 13.5899 35.0224 13.4845 35.4653 12.9853C36.7521 11.5509 36.3021 11.8673 39.5435 11.7337C39.9513 11.7196 40.4083 11.4313 41.1818 11.6142C41.9552 11.804 42.5177 12.2329 42.7497 12.8587C42.9396 13.3579 42.5739 17.4642 42.5739 17.4642Z" fill="#4DAABC" fill-opacity="0.2"/>
</svg>
