<svg width="72" height="51" viewBox="0 0 72 51" fill="none" xmlns="http://www.w3.org/2000/svg">
<rect width="72" height="51" rx="10" fill="#FAFAFA"/>
<path d="M32.2383 24.3125C32.2383 24.3125 33.0258 25.4023 33.0258 26.3164C32.8852 27.2234 32.3016 31.3016 32.3016 31.3016L35.8172 36.4836L41.5125 30.3664V29.8672C41.5125 29.8672 40.8305 29.5648 40.7602 29.0023C40.6898 28.4398 40.5703 26.3867 40.5703 26.3867L40.2188 26.7031L39.5859 27.1602L38.8828 27.5117L38.3906 27.582L37.8281 27.5117L36.7734 27.2656L36.0352 27.1777L35.2969 27.0195L33.9258 26.3867L32.2383 24.3125Z" fill="#4DAABC" fill-opacity="0.2"/>
<path d="M32.4563 30.1765C32.4563 30.1765 35.3251 35.3164 35.8102 35.6328C35.8102 35.6328 41.3719 30.064 41.393 29.7898C41.393 29.7898 43.2422 31.0203 43.7063 31.0203C44.1774 31.0203 50.6461 33.3195 51.068 34.0226C51.4899 34.7257 52.5938 35.9421 52.7555 38.2906C52.9172 40.632 52.9172 42.2843 52.9172 42.2843H18.7454C18.7454 42.2843 20.7352 35.8789 21.9797 35.1757C23.2243 34.4726 23.829 33.8609 24.511 33.5375C25.193 33.214 29.6016 31.4562 30.0516 31.3085C30.7055 31.0835 32.4563 30.1765 32.4563 30.1765Z" fill="#4DAABC" fill-opacity="0.2"/>
<path d="M32.4563 30.1765C32.4563 30.1765 34.643 33.9031 34.8188 34.121C34.9945 34.339 35.8313 35.5203 35.8313 35.5203C35.8313 35.5203 38.0742 33.3898 38.7914 32.6445C39.4594 31.9554 41.3648 29.7898 41.3648 29.7898L42.2438 30.3242C42.2438 30.3242 40.7531 32.321 39.3539 33.6992C38.4258 34.6132 35.55 37.2429 35.55 37.2429C35.55 37.2429 33.8977 34.6976 33.3844 33.8328C32.9133 33.0382 31.6758 30.5703 31.6758 30.5703L32.4563 30.1765Z" fill="#4DAABC" fill-opacity="0.2"/>
<path d="M36.8788 14.3984H33.1523L31.4648 16.4023L31.2187 18.9688L32.0976 22.2383C32.0976 22.2383 31.7109 21.2539 31.2187 21.2891C30.7265 21.3242 30.4944 21.282 30.3538 21.5C30.2132 21.718 30.0304 22.1398 30.0515 22.4773C30.0726 22.8148 30.396 23.6445 30.7827 24.0242C31.1694 24.4039 31.071 24.6148 31.5069 24.6992C31.9429 24.7836 32.0624 24.875 32.203 24.8117C32.3437 24.7484 32.4702 24.643 32.4702 24.643C32.4702 24.643 33.539 26.8438 35.6835 27.1953C37.828 27.5469 38.3554 27.7578 38.953 27.5117C39.5507 27.2656 40.6054 26.7031 40.8515 26C41.0976 25.2969 41.2171 24.1297 41.182 23.8695C41.182 23.8695 42.0538 22.4984 41.8569 20.9164C41.7304 19.8898 41.2382 20.3258 41.2382 20.3258L40.8163 16.8945L40.0429 14.3984H36.8788Z" fill="#4DAABC" fill-opacity="0.2"/>
<path d="M32.0976 22.2383C32.0976 22.2383 31.8585 21.6547 31.4296 21.4789C31.0218 21.3101 30.5085 21.3453 30.4734 21.3804C30.4382 21.4156 28.8843 18.2094 29.5874 15.9383C30.2906 13.6672 32.9624 12.739 33.2437 12.2117C33.5249 11.6844 35.1421 11.1008 36.1476 11.0867C37.1531 11.0726 38.046 11.1359 38.3132 11.0726C38.9601 10.932 39.7335 11.5508 39.8249 12.0781C39.9023 12.5281 40.1976 12.4437 40.4578 12.8375C40.7249 13.2523 41.1609 14.4969 41.2312 15.0734C41.3015 15.65 41.3648 20.2344 41.3648 20.2344L41.0835 20.375C41.0835 20.375 40.5913 18.7929 40.5913 17.8929C40.5913 16.9929 40.7531 16.5359 40.3453 16.1703C39.9374 15.8047 39.4804 14.8344 38.5312 14.9187C37.582 15.0031 37.4484 15.2773 37.0687 15.2914C36.5132 15.3054 35.7187 14.6375 34.896 14.8344C34.0734 15.0312 33.7007 14.9047 33.2999 15.5375C32.8992 16.1703 32.5335 16.2828 32.2874 16.5711C32.0413 16.8594 31.5843 17.3867 31.9007 17.9351C32.2171 18.4836 32.2171 19.1515 32.1468 19.6578C32.0765 20.164 32.0976 22.2383 32.0976 22.2383Z" fill="#4DAABC" fill-opacity="0.2"/>
</svg>
