<svg width="344" height="282" viewBox="0 0 344 282" fill="none" xmlns="http://www.w3.org/2000/svg">
<path opacity="0.2" d="M188 249C257.588 249 314 193.259 314 124.5C314 55.7405 257.588 0 188 0C118.412 0 62 55.7405 62 124.5C62 193.259 118.412 249 188 249Z" />
<path d="M58.1975 145.8C61.3511 147.584 65.3536 146.473 67.1374 143.32C68.9211 140.166 67.8107 136.164 64.6571 134.38C61.5035 132.596 57.501 133.707 55.7172 136.86C53.9335 140.014 55.0439 144.016 58.1975 145.8Z" fill="white"/>
<path d="M111.994 193.456C115.148 195.24 119.15 194.129 120.934 190.976C122.718 187.822 121.607 183.82 118.454 182.036C115.3 180.252 111.298 181.363 109.514 184.516C107.73 187.67 108.841 191.672 111.994 193.456Z" fill="white"/>
<path d="M139.194 219.608C142.348 221.392 146.35 220.281 148.134 217.128C149.918 213.974 148.807 209.972 145.654 208.188C142.5 206.404 138.498 207.515 136.714 210.668C134.93 213.822 136.041 217.824 139.194 219.608Z" fill="white"/>
<path d="M174.465 210.426C169.955 215.442 161.671 215.347 155.961 210.213L107.407 166.56C105.546 164.888 104.345 162.634 104.069 160.296C103.791 157.946 102.584 155.68 100.714 153.999L91.9042 146.079C88.2772 142.818 83.6611 140.956 79.0708 140.903L63.9646 127.322C58.931 122.796 57.6374 115.832 60.6032 110.876L57.9243 113.856C53.4817 118.797 54.4406 126.902 60.0659 131.96L75.1721 145.541C79.7621 145.595 84.3785 147.456 88.0055 150.717L96.8154 158.637C98.6855 160.319 99.8922 162.584 100.17 164.934C100.447 167.273 101.647 169.526 103.508 171.199L152.062 214.851C157.772 219.985 166.056 220.08 170.566 215.065L178.731 205.983L178.581 205.848L174.465 210.426Z" fill="white"/>
<path d="M178.581 205.848L182.63 201.345L69.9882 100.135L61.8231 109.217C61.3559 109.737 60.9518 110.293 60.6034 110.876L66.0895 104.774L178.581 205.848Z" />
<path d="M63.9646 127.322L79.0708 140.903C83.6608 140.956 88.2772 142.818 91.9042 146.079L100.714 153.999C102.584 155.68 103.791 157.945 104.069 160.296C104.345 162.634 105.546 164.888 107.407 166.56L155.961 210.213C161.671 215.347 169.955 215.442 174.465 210.427L178.581 205.848L66.0896 104.774L60.6035 110.876C57.6377 115.832 58.931 122.796 63.9646 127.322Z" />
<path d="M85.2802 83.4283L75.7161 94.0659L85.2802 83.428V83.4283Z" />
<path d="M180.035 191.503L154.417 141.796C150.753 134.686 145.738 128.21 139.681 122.764L135.474 118.981L130.577 124.427C127.278 128.097 121.628 128.398 117.956 125.099L100.963 109.829C97.7486 106.939 95.8746 102.915 95.8772 98.9079L95.8802 94.3769C95.8829 90.3833 94.0147 86.3725 90.811 83.4919C89.1045 81.9577 86.6284 81.9289 85.2807 83.428L75.7167 94.0656C71.2741 99.007 72.2329 107.112 77.8583 112.17L92.9645 125.751C97.5545 125.804 102.171 127.666 105.798 130.927L114.608 138.847C116.478 140.529 117.685 142.794 117.963 145.144C118.239 147.483 119.44 149.736 121.3 151.409L169.854 195.061C173.312 198.171 177.715 199.428 181.651 198.825C181.793 196.419 181.264 193.886 180.035 191.503Z" />
<path d="M158.202 149.14L138.222 150.202L131.875 138.21L151.776 137.152L158.202 149.14Z" fill="white"/>
<path d="M77.8578 112.17L92.9639 125.751C94.4737 125.769 95.9858 125.986 97.4653 126.38L96.1443 101.528C95.9707 100.661 95.8764 99.7845 95.8769 98.9079L95.8784 96.5265L95.6297 91.8473C95.026 88.7347 93.3357 85.762 90.8108 83.492C89.1043 81.9577 86.6282 81.929 85.2802 83.4283L66.0892 104.774L75.7164 94.0659C71.2738 99.0073 72.2324 107.113 77.8578 112.17Z" />
<path d="M169.854 195.061L121.3 151.409C119.44 149.736 118.239 147.483 117.963 145.144C117.684 142.794 116.478 140.529 114.608 138.847L105.798 130.927C103.364 128.739 100.484 127.184 97.4657 126.38C95.9862 125.986 94.4743 125.769 92.9643 125.751L77.8581 112.17C72.2327 107.112 71.2742 99.007 75.7165 94.0656L66.0893 104.774C61.6467 109.715 62.6055 117.821 68.2309 122.878L83.3374 136.46C87.9274 136.513 92.5438 138.374 96.1708 141.635L104.981 149.556C106.851 151.237 108.057 153.502 108.335 155.852C108.612 158.191 109.812 160.444 111.673 162.117L160.227 205.77C165.937 210.903 174.222 210.999 178.731 205.983C180.509 204.005 181.493 201.493 181.651 198.825C177.715 199.428 173.313 198.171 169.854 195.061Z" fill="white"/>
<path d="M170.591 173.178L151.137 174.213L144.791 162.221L164.407 161.178L170.591 173.178Z" fill="white"/>
<path d="M182.573 190.195L156.955 140.488C156.109 138.847 155.196 137.246 154.223 135.683C154.213 135.666 154.203 135.65 154.193 135.634C150.75 130.11 146.529 125.082 141.59 120.641L137.382 116.858C136.209 115.804 134.405 115.9 133.35 117.072L128.454 122.518C126.212 125.012 122.359 125.218 119.864 122.976L102.872 107.706C100.887 105.921 99.5175 103.577 98.9832 101.151L98.7334 96.4522L98.7349 94.3783C98.7356 93.3694 98.6348 92.3654 98.4489 91.3752C98.4484 91.3713 98.4474 91.3676 98.4466 91.3639C97.7407 87.6193 95.743 84.0871 92.7197 81.3687C91.3783 80.163 89.6823 79.4876 87.944 79.4676C86.0953 79.4473 84.3488 80.1942 83.1574 81.5191L63.9678 102.864C63.9672 102.864 63.967 102.865 63.9664 102.865L55.8014 111.947C50.8562 117.448 51.2282 126.054 56.3162 132.168L53.5914 135.199C50.4344 138.71 50.7228 144.136 54.2343 147.293L54.8981 147.89C56.6541 149.469 58.8883 150.186 61.0783 150.069C63.2685 149.953 65.4141 149.003 66.9929 147.247L69.5884 144.36L73.2635 147.664C73.7793 148.128 74.446 148.388 75.1394 148.396C79.0114 148.441 83.0052 150.06 86.0969 152.84L94.907 160.76C96.2545 161.972 97.1397 163.616 97.3354 165.269C97.6953 168.313 99.2098 171.173 101.6 173.322L109.6 180.515L107.095 183.301C103.938 186.813 104.226 192.239 107.738 195.396L108.401 195.992C110.158 197.571 112.391 198.288 114.582 198.172C116.771 198.056 118.918 197.105 120.496 195.35L123.002 192.563L136.855 205.018L134.349 207.804C131.192 211.316 131.481 216.742 134.992 219.899L135.656 220.496C137.412 222.074 139.646 222.792 141.836 222.675C144.026 222.559 146.172 221.609 147.751 219.853L150.258 217.064C153.518 219.953 157.587 221.571 161.732 221.619C162.086 221.623 162.437 221.616 162.785 221.597C166.689 221.39 170.175 219.77 172.69 216.974L180.855 207.892C185.04 203.236 185.714 196.29 182.573 190.195ZM151.88 143.104L153.642 146.523L139.892 147.254L136.489 140.824L150.219 140.094C150.798 141.081 151.354 142.084 151.88 143.104ZM166.031 170.562L152.807 171.265L149.404 164.835L162.715 164.127L166.031 170.562ZM87.4032 85.3369C87.5309 85.1946 87.7549 85.1758 87.8779 85.177C88.2237 85.1809 88.597 85.3406 88.902 85.6148C90.9 87.4114 92.2711 89.7777 92.7906 92.2203L93.0236 96.6042L93.0219 98.9061C93.0213 99.9113 93.1208 100.912 93.305 101.899L94.2823 120.283C94.366 121.858 95.7104 123.066 97.2846 122.983C98.8587 122.899 100.067 121.555 99.9838 119.98L99.5822 112.426L116.048 127.223C120.884 131.568 128.354 131.17 132.7 126.336L135.688 123.012L137.772 124.886C141.061 127.844 144.004 131.082 146.578 134.57L131.724 135.359C130.751 135.411 129.872 135.955 129.391 136.803C128.911 137.651 128.897 138.684 129.352 139.545L135.699 151.537C136.219 152.52 137.263 153.111 138.373 153.052L156.51 152.088L159.847 158.562L144.639 159.37C143.666 159.422 142.787 159.966 142.307 160.814C141.827 161.661 141.812 162.695 142.268 163.556L148.614 175.548C149.134 176.53 150.179 177.122 151.289 177.063L168.9 176.127L177.498 192.81C179.542 196.777 179.193 201.198 176.609 204.073C176.608 204.073 176.608 204.074 176.608 204.074L176.606 204.076C173.155 207.911 166.665 207.718 162.136 203.646L113.582 159.994C112.243 158.79 111.365 157.159 111.17 155.517C110.809 152.46 109.288 149.59 106.889 147.433L98.0789 139.512C94.2003 136.025 89.4084 133.966 84.4789 133.647L70.1393 120.755C65.6935 116.759 64.8291 110.445 68.212 106.683L87.4032 85.3369ZM62.7468 143.43C61.6946 144.6 59.8859 144.697 58.7153 143.644L58.0515 143.048C56.8809 141.995 56.7848 140.187 57.8372 139.016L60.3423 136.229L65.2522 140.643L62.7468 143.43ZM118.755 188.746L116.25 191.532C115.198 192.702 113.389 192.799 112.219 191.746L111.555 191.15C110.384 190.097 110.288 188.289 111.341 187.118L113.846 184.331L116.95 187.122L118.755 188.746ZM139.473 216.25L138.809 215.653C137.638 214.6 137.542 212.792 138.595 211.621L141.1 208.835L146.01 213.249L143.504 216.035C142.452 217.206 140.643 217.302 139.473 216.25ZM161.797 215.909C158.996 215.877 156.217 214.747 153.971 212.728L124.697 186.41C124.697 186.409 124.696 186.409 124.696 186.408L115.54 178.177C115.54 178.177 115.54 178.176 115.539 178.176L105.417 169.076C104.078 167.872 103.199 166.24 103.005 164.598C102.644 161.542 101.123 158.671 98.7239 156.514L89.9138 148.593C86.0352 145.107 81.2434 143.048 76.3139 142.729L61.9745 129.837C57.5287 125.84 56.6643 119.527 60.0472 115.764L60.702 115.036C61.3442 118.669 63.2403 122.23 66.3224 125.001L81.4285 138.582C81.9443 139.046 82.6111 139.306 83.3045 139.314C87.1765 139.358 91.1702 140.978 94.262 143.758L103.072 151.678C104.42 152.89 105.305 154.533 105.5 156.187C105.86 159.231 107.375 162.091 109.765 164.24L158.319 207.892C161.465 210.721 165.288 212.249 169.044 212.488L168.443 213.156C166.819 214.962 164.46 215.94 161.797 215.909Z" fill="#252729"/>
<path d="M97.8775 134.152C98.6273 134.112 99.3465 133.768 99.8486 133.209C100.35 132.651 100.616 131.899 100.577 131.149C100.537 130.4 100.193 129.68 99.6343 129.178C99.0759 128.676 98.3242 128.41 97.5745 128.45C96.8247 128.49 96.1054 128.834 95.6034 129.393C95.1016 129.951 94.8354 130.703 94.8753 131.452C94.9151 132.202 95.2592 132.921 95.8177 133.423C96.3761 133.926 97.1278 134.191 97.8775 134.152Z" fill="#252729"/>
<path d="M253.517 101.924L251.268 77.7924L232.481 66.402L210.234 75.9935C207.737 88.1157 209.092 100.166 213.478 110.849L237.12 116.166L253.517 101.924Z" fill="white"/>
<path d="M251.268 77.7924L273.524 68.1962L278.378 46.6119L262.374 28.4123L262.382 28.4012C250.419 29.7373 239.241 34.6573 230.234 42.2773L232.482 66.4019L251.268 77.7924Z" fill="white"/>
<path d="M278.377 46.612L273.523 68.1966L289.526 86.3973L311.381 84.1473L323.741 63.3081C318.863 52.5653 310.868 43.3331 300.63 37.0041L300.632 37.0173L278.377 46.612Z" fill="white"/>
<path d="M289.526 86.397L277.162 107.242L285.882 127.134L309.523 132.451C318.061 124.674 324.445 114.364 327.379 102.34L311.381 84.1471L289.526 86.397Z" fill="white"/>
<path d="M285.882 127.134L277.162 107.242L253.517 101.924L237.119 116.167L239.368 140.299L239.362 140.303C244.397 143.163 249.929 145.338 255.873 146.674C261.816 148.011 267.747 148.415 273.521 147.986L273.518 147.98L285.882 127.134Z" fill="white"/>
<path d="M251.267 77.7924L253.516 101.924L277.162 107.242L289.526 86.397L273.522 68.1965L251.267 77.7924Z" />
<path d="M278.377 46.6118L300.632 37.0169L300.63 37.0037C299.876 36.5383 299.108 36.088 298.33 35.6529C293.403 32.9036 288.007 30.8109 282.224 29.5102C276.44 28.2095 270.668 27.7905 265.038 28.1655C264.148 28.2253 263.262 28.3036 262.381 28.4012L262.374 28.4123L278.377 46.6118Z" />
<path d="M230.233 42.2772C229.551 42.8525 228.882 43.4438 228.226 44.0507C219.968 51.6914 213.776 61.7183 210.832 73.3781C210.704 73.8897 210.582 74.3998 210.466 74.9166C210.385 75.2757 210.307 75.6351 210.234 75.9935L232.48 66.402L230.233 42.2772Z" />
<path d="M237.119 116.167L213.478 110.849C213.817 111.677 214.175 112.497 214.551 113.308C219.381 123.729 227.158 132.698 237.071 138.931C237.824 139.404 238.587 139.861 239.362 140.303L239.368 140.299L237.119 116.167Z" />
<path d="M273.518 147.979L273.522 147.985C274.411 147.918 275.297 147.832 276.179 147.727C287.807 146.338 298.675 141.563 307.502 134.213C308.188 133.641 308.863 133.054 309.524 132.451L285.882 127.134L273.518 147.979Z" />
<path d="M327.957 99.7204C330.289 87.9231 328.986 76.2104 324.795 65.7698C324.462 64.9406 324.111 64.1202 323.741 63.3079L311.381 84.1471L327.378 102.34C327.466 101.985 327.549 101.627 327.63 101.267C327.746 100.751 327.854 100.237 327.957 99.7204Z" />
<path d="M282.759 27.1288C249.138 19.2423 214.513 41.5965 207.844 75.5011C201.535 104.352 218.011 135.271 245.529 145.956C246.667 146.212 247.857 145.62 248.318 144.505C248.832 143.26 248.24 141.832 246.994 141.318C245.186 140.571 243.403 139.723 241.679 138.793L239.666 117.188L254.185 104.576L275.422 109.352L283.143 126.966L272.05 145.669C270.108 145.763 268.153 145.755 266.19 145.635C264.844 145.566 263.697 146.602 263.629 147.949C263.56 149.295 264.598 150.442 265.942 150.51C295.759 152.308 323.77 131.062 330.011 101.803C337.783 68.5913 316.087 34.3088 282.759 27.1288ZM287.622 125.023L279.9 107.409L290.998 88.6992L310.379 86.7038L324.706 102.997C322.036 113.391 316.338 122.594 308.745 129.774L287.622 125.023ZM236.451 113.514L215.345 108.768C211.557 98.969 210.357 88.1716 212.341 77.7433L232.291 69.1415L248.951 79.2422L250.969 100.902L236.451 113.514ZM213.776 71.8081C216.474 62.3711 221.58 54.0767 228.263 47.4412L229.886 64.8625L213.776 71.8081ZM253.862 79.3316L272.86 71.14L286.522 86.677L275.967 104.471L255.782 99.9315L253.862 79.3316ZM314.385 83.8671L323.31 68.8182C326.509 77.6765 327.572 87.3584 325.969 97.0415L314.385 83.8671ZM320.953 63.2238L309.908 81.8448L290.528 83.8401L276.177 67.5185L280.486 48.3608L300.448 39.7545C309.299 45.5624 316.383 53.7673 320.953 63.2238ZM295.199 36.701L279.039 43.6682L267.418 30.4531C272.14 30.3122 276.93 30.7693 281.688 31.8916C286.467 32.9137 290.992 34.5516 295.199 36.701ZM261.368 30.9654L275.723 47.2896L271.414 66.4473L251.456 75.0526L234.797 64.9518L232.789 43.3946C240.967 36.8055 250.881 32.4243 261.368 30.9654ZM217.83 114.33L234.853 118.159L236.486 135.678C228.526 130.29 222.16 122.831 217.83 114.33ZM278.1 145.038L287.076 129.904L304.101 133.733C296.542 139.533 287.589 143.512 278.1 145.038Z" fill="#252729"/>
<path d="M255.336 149.055C256.651 149.351 257.957 148.525 258.253 147.21C258.549 145.894 257.722 144.588 256.407 144.293C255.092 143.997 253.786 144.823 253.49 146.138C253.194 147.454 254.021 148.76 255.336 149.055Z" fill="#252729"/>
<path d="M209.174 103.593L191.286 114.912" stroke="#252729" stroke-width="6" stroke-linecap="round"/>
<path d="M215.428 118.424L179.651 141.063" stroke="#252729" stroke-width="6" stroke-linecap="round"/>
<path d="M226.656 132.456L216.594 138.824" stroke="#252729" stroke-width="6" stroke-linecap="round"/>
<path d="M209.68 143.981L206.326 146.104" stroke="#252729" stroke-width="6" stroke-linecap="round"/>
</svg>
